<svg width="30" height="30" viewBox="0 0 30 30" fill="none" xmlns="http://www.w3.org/2000/svg">
<path d="M17.4122 25.0886C18.1518 25.8282 19.351 25.8282 20.0906 25.0886C20.8302 24.349 20.8302 23.1498 20.0906 22.4102L17.4122 25.0886ZM10.0014 14.9994L8.66214 13.6602C7.92251 14.3998 7.92251 15.599 8.66214 16.3386L10.0014 14.9994ZM20.0906 7.58863C20.8302 6.849 20.8302 5.64982 20.0906 4.91019C19.351 4.17056 18.1518 4.17056 17.4122 4.91019L20.0906 7.58863ZM20.0906 22.4102L11.3406 13.6602L8.66214 16.3386L17.4122 25.0886L20.0906 22.4102ZM11.3406 16.3386L20.0906 7.58863L17.4122 4.91019L8.66214 13.6602L11.3406 16.3386Z" fill="#333333"/>
</svg>
