<svg width="30" height="30" viewBox="0 0 30 30" fill="none" xmlns="http://www.w3.org/2000/svg">
<path d="M12.5906 4.91019C11.851 4.17056 10.6518 4.17056 9.91214 4.91019C9.17251 5.64982 9.17251 6.849 9.91214 7.58863L12.5906 4.91019ZM20.0014 14.9994L21.3406 16.3386C21.6958 15.9834 21.8953 15.5017 21.8953 14.9994C21.8953 14.4971 21.6958 14.0154 21.3406 13.6602L20.0014 14.9994ZM9.91214 22.4102C9.17251 23.1498 9.17251 24.349 9.91214 25.0886C10.6518 25.8282 11.851 25.8282 12.5906 25.0886L9.91214 22.4102ZM9.91214 7.58863L18.6622 16.3386L21.3406 13.6602L12.5906 4.91019L9.91214 7.58863ZM18.6622 13.6602L9.91214 22.4102L12.5906 25.0886L21.3406 16.3386L18.6622 13.6602Z" fill="#333333"/>
</svg>
