<svg width="30" height="30" viewBox="0 0 30 30" fill="none" xmlns="http://www.w3.org/2000/svg">
<path d="M17.4118 25.0892C18.1514 25.8288 19.3506 25.8288 20.0902 25.0892C20.8298 24.3496 20.8298 23.1504 20.0902 22.4108L17.4118 25.0892ZM10.001 15L8.66176 13.6608C7.92213 14.4004 7.92213 15.5996 8.66176 16.3392L10.001 15ZM20.0902 7.58922C20.8298 6.84959 20.8298 5.65041 20.0902 4.91078C19.3506 4.17115 18.1514 4.17115 17.4118 4.91078L20.0902 7.58922ZM20.0902 22.4108L11.3402 13.6608L8.66176 16.3392L17.4118 25.0892L20.0902 22.4108ZM11.3402 16.3392L20.0902 7.58922L17.4118 4.91078L8.66176 13.6608L11.3402 16.3392Z" fill="white"/>
</svg>
